<svg width="20" height="21" viewBox="0 0 20 21" fill="none" xmlns="http://www.w3.org/2000/svg">
<path fill-rule="evenodd" clip-rule="evenodd" d="M5.66667 8.41334C6.56367 8.41334 7.29167 7.66787 7.29167 6.74934C7.29167 5.83081 6.56367 5.08534 5.66667 5.08534C4.76967 5.08534 4.04167 5.83081 4.04167 6.74934C4.04167 7.66787 4.76967 8.41334 5.66667 8.41334M16.5 18.3973H4.10775L11.6965 11.9133C11.963 11.6814 12.4462 11.6825 12.7073 11.9122L17.5833 16.172V17.288C17.5833 17.9004 17.098 18.3973 16.5 18.3973M3.5 2.86668H16.5C17.098 2.86668 17.5833 3.36366 17.5833 3.97601V13.2545L14.1134 10.2238C13.0409 9.28971 11.3628 9.28971 10.3001 10.2171L2.41667 16.953V3.97601C2.41667 3.36366 2.902 2.86668 3.5 2.86668M16.5 0.64801H3.5C1.70817 0.64801 0.25 2.14117 0.25 3.97601V17.288C0.25 19.1228 1.70817 20.616 3.5 20.616H16.5C18.2918 20.616 19.75 19.1228 19.75 17.288V3.97601C19.75 2.14117 18.2918 0.64801 16.5 0.64801" fill="black"/>
</svg>
