<svg width="27" height="32" viewBox="0 0 27 32" fill="none" xmlns="http://www.w3.org/2000/svg">
<g filter="url(#filter0_d_19_79)">
<path fill-rule="evenodd" clip-rule="evenodd" d="M21.5833 21.5807C21.5833 22.2611 21.0645 22.8133 20.4226 22.8133C19.7807 22.8133 19.2619 22.2611 19.2619 21.5807C19.2619 18.1825 16.6584 15.4178 13.4583 15.4178C10.2582 15.4178 7.65474 18.1825 7.65474 21.5807C7.65474 22.2611 7.1359 22.8133 6.49403 22.8133C5.85215 22.8133 5.33331 22.2611 5.33331 21.5807C5.33331 16.8229 8.97912 12.9526 13.4583 12.9526C17.9375 12.9526 21.5833 16.8229 21.5833 21.5807M13.4583 3.09186C14.7386 3.09186 15.7797 4.1975 15.7797 5.55705C15.7797 6.9166 14.7386 8.02223 13.4583 8.02223C12.178 8.02223 11.1369 6.9166 11.1369 5.55705C11.1369 4.1975 12.178 3.09186 13.4583 3.09186M13.4583 10.4874C16.0188 10.4874 18.1012 8.27615 18.1012 5.55705C18.1012 2.83795 16.0188 0.626678 13.4583 0.626678C10.8978 0.626678 8.81546 2.83795 8.81546 5.55705C8.81546 8.27615 10.8978 10.4874 13.4583 10.4874" fill="black"/>
<path d="M21.0833 21.5807C21.0833 22.0141 20.7601 22.3133 20.4226 22.3133V23.3133C21.3688 23.3133 22.0833 22.5082 22.0833 21.5807H21.0833ZM20.4226 22.3133C20.0851 22.3133 19.7619 22.0141 19.7619 21.5807H18.7619C18.7619 22.5082 19.4764 23.3133 20.4226 23.3133V22.3133ZM19.7619 21.5807C19.7619 17.9351 16.9624 14.9178 13.4583 14.9178V15.9178C16.3544 15.9178 18.7619 18.4299 18.7619 21.5807H19.7619ZM13.4583 14.9178C9.9542 14.9178 7.15474 17.9351 7.15474 21.5807H8.15474C8.15474 18.4299 10.5622 15.9178 13.4583 15.9178V14.9178ZM7.15474 21.5807C7.15474 22.0141 6.83157 22.3133 6.49403 22.3133V23.3133C7.44024 23.3133 8.15474 22.5082 8.15474 21.5807H7.15474ZM6.49403 22.3133C6.15649 22.3133 5.83331 22.0141 5.83331 21.5807H4.83331C4.83331 22.5082 5.54782 23.3133 6.49403 23.3133V22.3133ZM5.83331 21.5807C5.83331 17.0704 9.28309 13.4526 13.4583 13.4526V12.4526C8.67514 12.4526 4.83331 16.5755 4.83331 21.5807H5.83331ZM13.4583 13.4526C17.6335 13.4526 21.0833 17.0704 21.0833 21.5807H22.0833C22.0833 16.5755 18.2415 12.4526 13.4583 12.4526V13.4526ZM13.4583 3.59186C14.4346 3.59186 15.2797 4.44491 15.2797 5.55705H16.2797C16.2797 3.95008 15.0426 2.59186 13.4583 2.59186V3.59186ZM15.2797 5.55705C15.2797 6.66918 14.4346 7.52223 13.4583 7.52223V8.52223C15.0426 8.52223 16.2797 7.16401 16.2797 5.55705H15.2797ZM13.4583 7.52223C12.4821 7.52223 11.6369 6.66918 11.6369 5.55705H10.6369C10.6369 7.16401 11.874 8.52223 13.4583 8.52223V7.52223ZM11.6369 5.55705C11.6369 4.44491 12.4821 3.59186 13.4583 3.59186V2.59186C11.874 2.59186 10.6369 3.95008 10.6369 5.55705H11.6369ZM13.4583 10.9874C16.3229 10.9874 18.6012 8.52356 18.6012 5.55705H17.6012C17.6012 8.02873 15.7148 9.98742 13.4583 9.98742V10.9874ZM18.6012 5.55705C18.6012 2.59053 16.3229 0.126678 13.4583 0.126678V1.12668C15.7148 1.12668 17.6012 3.08536 17.6012 5.55705H18.6012ZM13.4583 0.126678C10.5938 0.126678 8.31546 2.59053 8.31546 5.55705H9.31546C9.31546 3.08536 11.2018 1.12668 13.4583 1.12668V0.126678ZM8.31546 5.55705C8.31546 8.52356 10.5938 10.9874 13.4583 10.9874V9.98742C11.2018 9.98742 9.31546 8.02873 9.31546 5.55705H8.31546Z" fill="black"/>
</g>
<defs>
<filter id="filter0_d_19_79" x="0.833313" y="0.126678" width="25.25" height="31.1866" filterUnits="userSpaceOnUse" color-interpolation-filters="sRGB">
<feFlood flood-opacity="0" result="BackgroundImageFix"/>
<feColorMatrix in="SourceAlpha" type="matrix" values="0 0 0 0 0 0 0 0 0 0 0 0 0 0 0 0 0 0 127 0" result="hardAlpha"/>
<feOffset dy="4"/>
<feGaussianBlur stdDeviation="2"/>
<feComposite in2="hardAlpha" operator="out"/>
<feColorMatrix type="matrix" values="0 0 0 0 0 0 0 0 0 0 0 0 0 0 0 0 0 0 0.25 0"/>
<feBlend mode="normal" in2="BackgroundImageFix" result="effect1_dropShadow_19_79"/>
<feBlend mode="normal" in="SourceGraphic" in2="effect1_dropShadow_19_79" result="shape"/>
</filter>
</defs>
</svg>
