<svg width="22" height="23" viewBox="0 0 22 23" fill="none" xmlns="http://www.w3.org/2000/svg">
<path fill-rule="evenodd" clip-rule="evenodd" d="M2.76969 11.4288C3.97869 11.8537 4.94178 12.8898 5.34478 14.2032L5.38811 14.3363C5.84961 15.7297 5.66219 17.2295 4.88869 18.3543C4.74786 18.5585 4.77928 18.8025 4.92769 18.9179L7.17236 20.664C7.25144 20.725 7.32836 20.725 7.37603 20.7194C7.43019 20.7106 7.50928 20.6806 7.57319 20.5874L7.82344 20.2236C8.56986 19.1397 9.77236 18.4708 11.042 18.4331C12.4677 18.4032 13.7482 19.0721 14.5455 20.2513L14.6734 20.441C14.7373 20.5342 14.8153 20.5652 14.8705 20.5741C14.9182 20.5841 14.9962 20.5808 15.0742 20.5186L17.3069 18.7936C17.4629 18.6738 17.4976 18.4176 17.3817 18.2456L17.1 17.8296C16.3742 16.7558 16.1586 15.3625 16.5237 14.1034C16.9202 12.7322 17.9288 11.6473 19.2234 11.2036L19.4411 11.1282C19.6155 11.0694 19.7098 10.8475 19.648 10.6434L18.7954 7.84675C18.7554 7.71585 18.673 7.65705 18.6275 7.63265C18.5625 7.59826 18.4921 7.59271 18.4249 7.61601L18.0566 7.74136C16.7967 8.17067 15.4068 7.93771 14.3397 7.1157L14.2227 7.02584C13.2087 6.24487 12.6053 4.98578 12.6096 3.65902L12.6118 3.34841C12.6118 3.20087 12.5435 3.10879 12.5024 3.06664C12.4634 3.02559 12.3973 2.97678 12.3041 2.97678L9.54486 2.97345C9.37586 2.97345 9.23828 3.13875 9.23719 3.34286L9.23611 3.61132C9.23069 4.95916 8.61428 6.24155 7.58728 7.04359L7.44753 7.15231C6.31761 8.03201 4.84428 8.2805 3.50961 7.81458C3.45869 7.79683 3.41103 7.80016 3.36553 7.82456C3.33086 7.84231 3.26803 7.88779 3.23769 7.98874L2.35261 10.8686C2.28869 11.0782 2.39378 11.2968 2.59203 11.3667L2.76969 11.4288ZM7.33161 22.9414C6.80511 22.9414 6.29378 22.7662 5.86261 22.43L3.61794 20.685C2.54544 19.853 2.30819 18.2523 3.08819 17.1174C3.49336 16.5295 3.57678 15.774 3.33844 15.0574L3.27886 14.871C3.08061 14.2254 2.62778 13.724 2.06769 13.5276H2.06661L1.89003 13.4644C0.570526 13.0018 -0.133641 11.5697 0.285609 10.203L1.16961 7.32425C1.37003 6.67308 1.80228 6.14725 2.38728 5.84441C2.95928 5.54932 3.60603 5.50384 4.21053 5.71572C4.85944 5.94203 5.57986 5.81889 6.13561 5.38625L6.27536 5.27754C6.76936 4.89149 7.06728 4.26472 7.06944 3.60245L7.07053 3.3351C7.07594 1.91071 8.18636 0.754791 9.54378 0.754791H9.54811L12.3074 0.758119C12.9595 0.759229 13.5749 1.02325 14.0385 1.50137C14.5184 1.99502 14.7806 2.65508 14.7784 3.3595L14.7763 3.66901C14.7741 4.29689 15.0547 4.89038 15.5281 5.25424L15.644 5.3441C16.1413 5.72682 16.7891 5.83664 17.3709 5.63696L17.7381 5.51161C18.3632 5.29861 19.0284 5.35075 19.6144 5.65804C20.2157 5.97309 20.6599 6.51555 20.8635 7.1867L21.7161 9.98332C22.1278 11.3345 21.4149 12.7921 20.129 13.2326L19.9113 13.3069C19.2873 13.5221 18.7965 14.0546 18.6004 14.7335C18.4206 15.3558 18.5246 16.0403 18.881 16.5661L19.1627 16.9821C19.9362 18.1269 19.6892 19.7332 18.6124 20.5641L16.3796 22.2902C15.8434 22.7051 15.1858 22.8726 14.526 22.765C13.8609 22.6552 13.2802 22.278 12.8913 21.7034L12.7634 21.5126C12.3843 20.9535 11.7776 20.614 11.1417 20.6507C10.5047 20.6684 9.95436 20.9779 9.59469 21.5015L9.34444 21.8654C8.95228 22.4345 8.37053 22.8061 7.70861 22.9126C7.58186 22.9326 7.45619 22.9414 7.33161 22.9414V22.9414ZM11 10.184C10.1041 10.184 9.37499 10.9306 9.37499 11.848C9.37499 12.7654 10.1041 13.512 11 13.512C11.8959 13.512 12.625 12.7654 12.625 11.848C12.625 10.9306 11.8959 10.184 11 10.184M11 15.7307C8.90916 15.7307 7.20833 13.989 7.20833 11.848C7.20833 9.70699 8.90916 7.96534 11 7.96534C13.0908 7.96534 14.7917 9.70699 14.7917 11.848C14.7917 13.989 13.0908 15.7307 11 15.7307" fill="black"/>
</svg>
