<svg width="22" height="20" viewBox="0 0 22 20" fill="none" xmlns="http://www.w3.org/2000/svg">
<path fill-rule="evenodd" clip-rule="evenodd" d="M10.9998 0.0398865C13.7959 0.0398865 16.2594 1.88249 17.1477 4.52714C19.7899 4.89433 21.8331 7.21949 21.8331 10.0239C21.8331 11.3784 21.3521 12.6818 20.4789 13.6947C20.2644 13.942 19.9665 14.0696 19.6664 14.0696C19.4119 14.0696 19.1562 13.9787 18.9493 13.7923C18.5019 13.3852 18.4585 12.6852 18.855 12.2248C19.3783 11.6191 19.6664 10.8359 19.6664 10.0239C19.6664 8.18905 18.2083 6.69589 16.4164 6.69589H16.3081C15.7924 6.69589 15.3483 6.32315 15.2464 5.80509C14.8413 3.75061 13.0559 2.25855 10.9998 2.25855C8.94469 2.25855 7.15828 3.75061 6.75419 5.80509C6.65236 6.32315 6.20711 6.69589 5.69144 6.69589H5.58311C3.79128 6.69589 2.33311 8.18905 2.33311 10.0239C2.33311 10.8359 2.62128 11.6191 3.14561 12.2248C3.54103 12.6852 3.49878 13.3852 3.05028 13.7923C2.60069 14.1983 1.91711 14.1528 1.52169 13.6947C0.647443 12.6818 0.166443 11.3784 0.166443 10.0239C0.166443 7.21949 2.20961 4.89433 4.85186 4.52714C5.74128 1.88249 8.20478 0.0398865 10.9998 0.0398865ZM12.0835 16.2848L13.4973 14.8871C13.9285 14.4622 14.6142 14.4744 15.0291 14.9148C15.4451 15.3563 15.4332 16.0585 15.0031 16.4834L11.7531 19.6972C11.5419 19.9035 11.271 20.0078 11.0002 20.0078C10.7229 20.0078 10.4455 19.9002 10.2343 19.6827L6.98429 16.3547C6.56071 15.9221 6.56071 15.2199 6.98429 14.7861C7.40679 14.3535 8.09254 14.3535 8.51613 14.7861L9.91688 16.2205V10.0238C9.91688 9.41031 10.4022 8.91444 11.0002 8.91444C11.5982 8.91444 12.0835 9.41031 12.0835 10.0238V16.2848Z" fill="black"/>
</svg>
