<svg width="20" height="24" viewBox="0 0 20 24" fill="none" xmlns="http://www.w3.org/2000/svg">
<path fill-rule="evenodd" clip-rule="evenodd" d="M4.58333 16.3733C4.58333 15.7632 5.07083 15.264 5.66667 15.264C6.2625 15.264 6.75 15.7632 6.75 16.3733C6.75 16.9835 6.2625 17.4827 5.66667 17.4827C5.07083 17.4827 4.58333 16.9835 4.58333 16.3733ZM10 15.264H14.3333C14.9292 15.264 15.4167 15.7632 15.4167 16.3733C15.4167 16.9835 14.9292 17.4827 14.3333 17.4827H10C9.40417 17.4827 8.91667 16.9835 8.91667 16.3733C8.91667 15.7632 9.40417 15.264 10 15.264ZM16.5 20.8107H3.5C2.90308 20.8107 2.41667 20.3126 2.41667 19.7013V13.0453H17.5833V19.7013C17.5833 20.3126 17.0969 20.8107 16.5 20.8107M3.5 5.28002H4.58333V6.38935C4.58333 6.99948 5.07083 7.49868 5.66667 7.49868C6.2625 7.49868 6.75 6.99948 6.75 6.38935V5.28002H13.25V6.38935C13.25 6.99948 13.7375 7.49868 14.3333 7.49868C14.9292 7.49868 15.4167 6.99948 15.4167 6.38935V5.28002H16.5C17.0969 5.28002 17.5833 5.77811 17.5833 6.38935V10.8267H2.41667V6.38935C2.41667 5.77811 2.90308 5.28002 3.5 5.28002M16.5 3.06135H15.4167V1.95202C15.4167 1.34189 14.9292 0.84269 14.3333 0.84269C13.7375 0.84269 13.25 1.34189 13.25 1.95202V3.06135H6.75V1.95202C6.75 1.34189 6.2625 0.84269 5.66667 0.84269C5.07083 0.84269 4.58333 1.34189 4.58333 1.95202V3.06135H3.5C1.70817 3.06135 0.25 4.55451 0.25 6.38935V19.7013C0.25 21.5362 1.70817 23.0293 3.5 23.0293H16.5C18.2918 23.0293 19.75 21.5362 19.75 19.7013V6.38935C19.75 4.55451 18.2918 3.06135 16.5 3.06135" fill="black"/>
</svg>
