<svg width="26" height="27" viewBox="0 0 26 27" fill="none" xmlns="http://www.w3.org/2000/svg">
<g opacity="0.2">
<path fill-rule="evenodd" clip-rule="evenodd" d="M15.5232 22.2032C15.4506 22.2032 15.3758 22.1999 15.3011 22.1921C14.3477 22.0956 13.6002 21.4067 13.3944 20.4361L10.4878 6.68919L7.49458 13.769C7.32233 14.175 6.93125 14.4379 6.50008 14.4379H3.25008C2.651 14.4379 2.16675 13.9409 2.16675 13.3286C2.16675 12.7151 2.651 12.2192 3.25008 12.2192H5.78941L8.50425 5.79729C8.88883 4.89207 9.736 4.36514 10.6991 4.46387C11.6524 4.56038 12.3999 5.24927 12.6057 6.21994L15.5123 19.9668L18.5056 12.887C18.6778 12.481 19.0678 12.2192 19.5001 12.2192H22.7501C23.3492 12.2192 23.8334 12.7151 23.8334 13.3286C23.8334 13.9409 23.3492 14.4379 22.7501 14.4379H20.2107L17.4959 20.8587C17.1417 21.694 16.3822 22.2032 15.5232 22.2032" fill="black"/>
</g>
</svg>
