<svg width="36" height="38" viewBox="0 0 36 38" fill="none" xmlns="http://www.w3.org/2000/svg">
<path fill-rule="evenodd" clip-rule="evenodd" d="M36 19.392C36 29.5717 27.9411 37.824 18 37.824C8.05888 37.824 0 29.5717 0 19.392C0 9.21231 8.05888 0.960022 18 0.960022C27.9411 0.960022 36 9.21231 36 19.392ZM18.0839 22.0117C21.4015 17.2075 21.5479 14.2959 18.0839 9.15202C14.5537 14.4057 15.0088 17.1903 18.0839 22.0117ZM16.5085 28.2698C17.0358 22.4106 15.741 19.8141 10.2294 17.133C9.73741 23.4902 11.4912 25.6688 16.5085 28.2698ZM19.6807 28.2698C19.1534 22.4106 20.4483 19.8141 25.9599 17.133C26.4518 23.4902 24.6981 25.6688 19.6807 28.2698Z" fill="black"/>
</svg>
